<?xml version="1.0" encoding="UTF-8"?>
<svg width="81px" height="16px" viewBox="0 0 81 16" version="1.1" xmlns="http://www.w3.org/2000/svg" xmlns:xlink="http://www.w3.org/1999/xlink">
    <!-- Generator: Sketch 56.2 (81672) - https://sketch.com -->
    <title>Group 2</title>
    <desc>Created with Sketch.</desc>
    <g id="Page-1" stroke="none" stroke-width="1" fill="none" fill-rule="evenodd">
        <g id="Artboard" transform="translate(-58.000000, -65.000000)" fill="#FFFFFF">
            <g id="Group-2" transform="translate(58.000000, 65.000000)">
                <text id="MD" font-family="AcuminPro-Semibold, Acumin Pro" font-size="22" font-weight="500" letter-spacing="-6.38447857">
                    <tspan x="53" y="16">MD</tspan>
                </text>
                <path d="M2.5638852,1 L49.4361148,1 C50.3276335,1 50.6509198,1.09282561 50.9768457,1.2671327 C51.3027716,1.4414398 51.5585602,1.69722837 51.7328673,2.0231543 C51.9071744,2.34908022 52,2.67236646 52,3.5638852 L52,13.4361148 C52,14.3276335 51.9071744,14.6509198 51.7328673,14.9768457 C51.5585602,15.3027716 51.3027716,15.5585602 50.9768457,15.7328673 C50.6509198,15.9071744 50.3276335,16 49.4361148,16 L2.5638852,16 C1.67236646,16 1.34908022,15.9071744 1.0231543,15.7328673 C0.697228371,15.5585602 0.441439796,15.3027716 0.267132704,14.9768457 C0.0928256111,14.6509198 4.01235366e-17,14.3276335 -6.90560205e-17,13.4361148 L6.90560205e-17,3.5638852 C-4.01235366e-17,2.67236646 0.0928256111,2.34908022 0.267132704,2.0231543 C0.441439796,1.69722837 0.697228371,1.4414398 1.0231543,1.2671327 C1.34908022,1.09282561 1.67236646,1 2.5638852,1 Z M4.765,12 L5.935,12 L5.935,9.597 L7.231,9.597 C8.455,9.597 9.427,8.967 9.427,7.662 C9.427,6.492 8.554,5.772 7.267,5.772 L4.765,5.772 L4.765,12 Z M5.935,6.717 L7.141,6.717 C7.762,6.717 8.248,7.005 8.248,7.689 C8.248,8.355 7.807,8.652 7.105,8.652 L5.935,8.652 L5.935,6.717 Z M10.1994891,12 L14.3844891,12 L14.5194891,11.037 L11.3694891,11.037 L11.3694891,5.772 L10.1994891,5.772 L10.1994891,12 Z M18.8379783,10.416 L19.4049783,12 L20.6379783,12 L18.3969783,5.772 L16.9389783,5.772 L14.7879783,12 L15.9399783,12 L16.4889783,10.416 L18.8379783,10.416 Z M16.7499783,9.444 C17.1459783,8.229 17.4699783,7.23 17.6229783,6.645 L17.6319783,6.645 C17.7849783,7.176 18.0819783,8.022 18.5679783,9.444 L16.7499783,9.444 Z M21.7704674,12 L22.9404674,12 L22.9404674,6.744 L24.8664674,6.744 L24.8664674,5.772 L19.8444674,5.772 L19.8444674,6.744 L21.7704674,6.744 L21.7704674,12 Z M25.4319565,5.772 L25.4319565,12 L26.6019565,12 L26.6019565,5.772 L25.4319565,5.772 Z M28.9494456,12 L28.9494456,9.903 C28.9494456,8.778 28.9404456,7.581 28.8954456,6.978 L28.9044456,6.978 C29.2464456,7.689 30.9834456,10.74 31.7124456,12 L33.0984456,12 L33.0984456,5.772 L32.0274456,5.772 L32.0274456,7.824 C32.0274456,8.841 32.0274456,9.885 32.0904456,10.587 L32.0814456,10.587 C31.7754456,9.912 30.1644456,7.194 29.3454456,5.772 L27.8694456,5.772 L27.8694456,12 L28.9494456,12 Z M34.2939348,5.772 L34.2939348,9.471 C34.2939348,11.496 35.4729348,12.081 36.8409348,12.081 C38.1999348,12.081 39.4059348,11.532 39.4059348,9.435 L39.4059348,5.772 L38.2359348,5.772 L38.2359348,9.498 C38.2359348,10.731 37.6869348,11.154 36.8589348,11.154 C36.1479348,11.154 35.4639348,10.785 35.4639348,9.498 L35.4639348,5.772 L34.2939348,5.772 Z M45.8574239,12 L46.9824239,12 L46.9824239,5.772 L45.3084239,5.772 C44.7144239,7.473 43.9134239,9.84 43.7694239,10.587 L43.7514239,10.587 C43.5624239,9.705 42.9054239,7.509 42.3384239,5.772 L40.6014239,5.772 L40.6014239,12 L41.6814239,12 L41.6814239,9.687 C41.6814239,8.616 41.6544239,7.302 41.6004239,6.573 L41.6364239,6.573 C41.9154239,7.752 42.6984239,10.335 43.1754239,12 L44.1834239,12 C44.8224239,10.047 45.5784239,7.77 45.8574239,6.591 L45.9024239,6.591 C45.8754239,7.275 45.8574239,8.463 45.8574239,9.552 L45.8574239,12 Z" id="Combined-Shape"></path>
            </g>
        </g>
    </g>
</svg>